# xmcd
#
# Track frame offsets:
#	150
#	66889
#	96317
#	150265
#	204330
#	244949
#	286266
#
# Disc length: 4319 seconds
#
# Revision: 1
# Processed by: cddbd v1.5.2PL0 Copyright (c) Steve Scherf et al.
# Submitted via: audiograbber 1.83.01
#
DISCID=5910dd07
DTITLE=Grateful Dead - 78-01-13 Arlington Theatre, Santa Barbara CA
DYEAR=1900
DGENRE=
TTITLE0=Dancing In The Streets
TTITLE1=Drums
TTITLE2=Space
TTITLE3=Wharf Rat
TTITLE4=Truckin'
TTITLE5=Around and Around
TTITLE6=Sugar Magnolia
EXTD=
EXTT0=
EXTT1=
EXTT2=
EXTT3=
EXTT4=
EXTT5=
EXTT6=
PLAYORDER=
